<?xml version="1.0" encoding="UTF-8"?>
<svg width="512px" height="512px" viewBox="0 0 512 512" version="1.1" xmlns="http://www.w3.org/2000/svg" xmlns:xlink="http://www.w3.org/1999/xlink">
    <!-- Generator: Sketch 45.2 (43514) - http://www.bohemiancoding.com/sketch -->
    <title>Group</title>
    <desc>Created with Sketch.</desc>
    <defs></defs>
    <g id="Page-1" stroke="none" stroke-width="1" fill="none" fill-rule="evenodd" opacity="0.2">
        <g id="virus-(2)" fill-rule="nonzero" fill="#FFFFFF">
            <g id="Group">
                <path d="M190.574,280.964 C190.574,263.803 176.612,249.841 159.451,249.841 C142.29,249.841 128.328,263.803 128.328,280.964 C128.328,298.125 142.29,312.087 159.451,312.087 C176.612,312.087 190.574,298.125 190.574,280.964 Z M148.328,280.964 C148.328,274.831 153.318,269.841 159.451,269.841 C165.584,269.841 170.574,274.831 170.574,280.964 C170.574,287.097 165.584,292.087 159.451,292.087 C153.318,292.087 148.328,287.097 148.328,280.964 Z" id="XMLID_490_"></path>
                <path d="M244.967,287.456 C227.806,287.456 213.844,301.418 213.844,318.579 C213.844,335.74 227.806,349.702 244.967,349.702 C262.128,349.702 276.089,335.74 276.089,318.579 C276.089,301.418 262.128,287.456 244.967,287.456 L244.967,287.456 Z M244.967,329.702 C238.834,329.702 233.844,324.712 233.844,318.579 C233.844,312.446 238.834,307.456 244.967,307.456 C251.1,307.456 256.089,312.446 256.089,318.579 C256.089,324.712 251.1,329.702 244.967,329.702 L244.967,329.702 Z" id="XMLID_500_"></path>
                <path d="M169.186,394.332 C186.347,394.332 200.309,380.371 200.309,363.21 C200.309,346.049 186.347,332.087 169.186,332.087 C152.025,332.087 138.063,346.049 138.063,363.21 C138.062,380.371 152.024,394.332 169.186,394.332 Z M169.186,352.087 C175.319,352.087 180.309,357.077 180.309,363.21 C180.309,369.343 175.319,374.332 169.186,374.332 C163.053,374.332 158.063,369.343 158.063,363.21 C158.062,357.077 163.053,352.087 169.186,352.087 Z" id="XMLID_503_"></path>
                <path d="M283.29,238.72 C283.29,236.08 282.22,233.5 280.359,231.64 C278.49,229.78 275.919,228.72 273.29,228.72 C270.649,228.72 268.08,229.78 266.21,231.64 C264.35,233.5 263.29,236.08 263.29,238.72 C263.29,241.35 264.35,243.92 266.21,245.79 C268.08,247.65 270.649,248.71 273.29,248.71 C275.92,248.71 278.49,247.65 280.359,245.79 C282.22,243.92 283.29,241.35 283.29,238.72 Z" id="XMLID_504_"></path>
                <path d="M502,206.402 L490.892,206.402 C489.715,201.117 487.628,196.174 484.802,191.743 L492.669,183.875 C496.574,179.97 496.574,173.638 492.669,169.733 C488.763,165.828 482.433,165.828 478.526,169.734 L470.659,177.601 C466.227,174.775 461.284,172.687 455.999,171.51 L455.999,160.402 C455.999,154.879 451.521,150.402 445.999,150.402 C440.477,150.402 435.999,154.879 435.999,160.402 L435.999,171.51 C430.714,172.687 425.771,174.774 421.34,177.601 L413.473,169.734 C409.567,165.829 403.237,165.829 399.33,169.734 C395.425,173.639 395.425,179.971 399.33,183.877 L407.197,191.744 C404.371,196.175 402.283,201.118 401.107,206.403 L390,206.403 C384.478,206.403 380,210.88 380,216.403 C380,221.926 384.478,226.403 390,226.403 L401.108,226.403 C402.285,231.688 404.372,236.631 407.198,241.063 L399.331,248.93 C395.426,252.835 395.426,259.167 399.331,263.073 C401.284,265.025 403.843,266.002 406.402,266.002 C408.962,266.002 411.52,265.025 413.473,263.073 L421.34,255.206 C425.772,258.032 430.714,260.12 435.999,261.297 L435.999,272.405 C435.999,277.927 440.477,282.405 445.999,282.405 C451.521,282.405 455.999,277.927 455.999,272.405 L455.999,261.297 C461.284,260.12 466.227,258.033 470.658,255.206 L478.525,263.073 C480.478,265.025 483.037,266.002 485.596,266.002 C488.155,266.002 490.714,265.025 492.667,263.073 C496.572,259.168 496.572,252.836 492.667,248.931 L484.8,241.063 C487.626,236.631 489.714,231.689 490.89,226.403 L502,226.403 C507.522,226.403 512,221.926 512,216.403 C512,210.879 507.522,206.402 502,206.402 L502,206.402 Z M446,242.402 C431.663,242.402 420,230.738 420,216.402 C420,202.065 431.663,190.402 446,190.402 C460.337,190.402 472,202.065 472,216.402 C472,230.738 460.337,242.402 446,242.402 Z" id="XMLID_530_"></path>
                <path d="M239.924,76 L251.032,76 C252.209,81.285 254.296,86.228 257.122,90.659 L249.255,98.527 C245.35,102.432 245.35,108.764 249.255,112.67 C251.208,114.623 253.767,115.599 256.326,115.599 C258.886,115.599 261.444,114.623 263.397,112.67 L271.265,104.803 C275.696,107.629 280.639,109.717 285.924,110.893 L285.924,122 C285.924,127.523 290.402,132 295.924,132 C301.446,132 305.924,127.523 305.924,122 L305.924,110.892 C311.209,109.715 316.152,107.628 320.584,104.801 L328.451,112.668 C330.404,114.621 332.963,115.597 335.522,115.597 C338.081,115.597 340.64,114.62 342.593,112.668 C346.498,108.763 346.498,102.431 342.593,98.526 L334.726,90.658 C337.552,86.226 339.64,81.284 340.816,75.999 L351.924,75.999 C357.446,75.999 361.924,71.522 361.924,65.999 C361.924,60.476 357.446,55.999 351.924,55.999 L340.816,55.999 C339.639,50.714 337.552,45.771 334.726,41.34 L342.593,33.472 C346.498,29.567 346.498,23.235 342.593,19.33 C338.687,15.425 332.355,15.425 328.45,19.33 L320.583,27.197 C316.151,24.371 311.209,22.283 305.923,21.106 L305.923,10 C305.923,4.477 301.445,1.42108547e-14 295.923,1.42108547e-14 C290.401,1.42108547e-14 285.923,4.477 285.923,10 L285.923,21.108 C280.638,22.285 275.695,24.372 271.264,27.198 L263.396,19.331 C259.49,15.426 253.16,15.426 249.253,19.331 C245.348,23.236 245.348,29.568 249.253,33.473 L257.12,41.341 C254.294,45.772 252.206,50.715 251.03,56 L239.922,56 C234.4,56 229.922,60.477 229.922,66 C229.922,71.523 234.401,76 239.924,76 L239.924,76 Z M295.924,40 C310.261,40 321.924,51.664 321.924,66 C321.924,80.336 310.261,92 295.924,92 C281.587,92 269.924,80.336 269.924,66 C269.924,51.664 281.587,40 295.924,40 Z" id="XMLID_533_"></path>
                <path d="M358.179,287.911 C345.143,287.911 334.027,296.272 329.899,307.911 L315.678,307.911 C314.694,295.743 311.917,283.884 307.371,272.541 C305.316,267.414 299.495,264.928 294.368,266.98 C289.242,269.035 286.752,274.857 288.806,279.983 C293.638,292.037 296.088,304.799 296.088,317.912 C296.088,374.155 250.331,419.912 194.088,419.912 C137.845,419.912 92.088,374.155 92.088,317.912 C92.088,261.669 137.845,215.911 194.088,215.911 C207.197,215.911 219.954,218.36 232.007,223.189 C237.134,225.245 242.955,222.753 245.009,217.627 C247.064,212.501 244.573,206.679 239.447,204.625 C228.107,200.081 216.251,197.305 204.089,196.322 L204.089,182.103 C215.728,177.975 224.089,166.86 224.089,153.823 C224.089,137.281 210.631,123.823 194.089,123.823 C177.547,123.823 164.089,137.281 164.089,153.823 C164.089,166.859 172.45,177.975 184.089,182.103 L184.089,196.324 C157.953,198.455 134.125,208.859 115.227,224.907 L105.129,214.809 C107.007,210.892 108.061,206.509 108.061,201.883 C108.061,185.341 94.603,171.883 78.061,171.883 C61.519,171.883 48.061,185.341 48.061,201.883 C48.061,218.425 61.519,231.883 78.061,231.883 C82.686,231.883 87.07,230.829 90.987,228.951 L101.085,239.049 C85.037,257.946 74.632,281.775 72.501,307.911 L58.28,307.911 C54.152,296.272 43.036,287.911 30,287.911 C13.458,287.911 -5.68434189e-14,301.369 -5.68434189e-14,317.911 C-5.68434189e-14,334.453 13.458,347.911 30,347.911 C43.036,347.911 54.152,339.55 58.28,327.911 L72.501,327.911 C74.632,354.048 85.037,377.876 101.085,396.773 L90.987,406.871 C87.071,404.993 82.687,403.939 78.061,403.939 C61.519,403.939 48.061,417.397 48.061,433.939 C48.061,450.481 61.519,463.939 78.061,463.939 C94.603,463.939 108.061,450.481 108.061,433.939 C108.061,429.313 107.007,424.93 105.129,421.013 L115.227,410.915 C134.124,426.963 157.952,437.368 184.089,439.498 L184.089,453.719 C172.45,457.847 164.089,468.962 164.089,481.999 C164.089,498.541 177.547,511.999 194.089,511.999 C210.631,511.999 224.089,498.541 224.089,481.999 C224.089,468.963 215.728,457.847 204.089,453.719 L204.089,439.498 C230.226,437.367 254.054,426.963 272.951,410.915 L283.05,421.013 C281.172,424.929 280.118,429.313 280.118,433.939 C280.118,450.481 293.576,463.939 310.118,463.939 C326.66,463.939 340.118,450.481 340.118,433.939 C340.118,417.397 326.66,403.939 310.118,403.939 C305.493,403.939 301.109,404.993 297.192,406.871 L287.093,396.773 C303.141,377.876 313.546,354.048 315.676,327.911 L329.898,327.911 C334.026,339.55 345.142,347.911 358.178,347.911 C374.72,347.911 388.178,334.453 388.178,317.911 C388.178,301.369 374.721,287.911 358.179,287.911 L358.179,287.911 Z M194.089,143.822 C199.603,143.822 204.089,148.308 204.089,153.822 C204.089,159.336 199.603,163.822 194.089,163.822 C188.575,163.822 184.089,159.336 184.089,153.822 C184.089,148.308 188.575,143.822 194.089,143.822 Z M68.061,201.882 C68.061,196.368 72.547,191.882 78.061,191.882 C83.575,191.882 88.061,196.368 88.061,201.882 C88.061,207.396 83.575,211.882 78.061,211.882 C72.547,211.882 68.061,207.396 68.061,201.882 Z M30,327.911 C24.486,327.911 20,323.425 20,317.911 C20,312.397 24.486,307.911 30,307.911 C35.514,307.911 40,312.397 40,317.911 C40,323.425 35.514,327.911 30,327.911 Z M78.061,443.94 C72.547,443.94 68.061,439.454 68.061,433.94 C68.061,428.426 72.547,423.94 78.061,423.94 C83.575,423.94 88.061,428.426 88.061,433.94 C88.061,439.453 83.574,443.94 78.061,443.94 Z M194.089,492 C188.575,492 184.089,487.514 184.089,482 C184.089,476.486 188.575,472 194.089,472 C199.603,472 204.089,476.486 204.089,482 C204.089,487.514 199.602,492 194.089,492 Z M320.118,433.94 C320.118,439.454 315.632,443.94 310.118,443.94 C304.604,443.94 300.118,439.454 300.118,433.94 C300.118,428.426 304.604,423.94 310.118,423.94 C315.632,423.94 320.118,428.426 320.118,433.94 Z M358.179,327.911 C352.665,327.911 348.179,323.425 348.179,317.911 C348.179,312.397 352.665,307.911 358.179,307.911 C363.693,307.911 368.179,312.397 368.179,317.911 C368.179,323.425 363.692,327.911 358.179,327.911 Z" id="XMLID_539_"></path>
                <path d="M319.397,162.603 C302.855,162.603 289.397,176.061 289.397,192.603 C289.397,209.145 302.855,222.603 319.397,222.603 C335.939,222.603 349.397,209.145 349.397,192.603 C349.397,176.061 335.94,162.603 319.397,162.603 Z M319.397,202.603 C313.883,202.603 309.397,198.117 309.397,192.603 C309.397,187.089 313.883,182.603 319.397,182.603 C324.911,182.603 329.397,187.089 329.397,192.603 C329.397,198.117 324.911,202.603 319.397,202.603 Z" id="XMLID_1148_"></path>
            </g>
        </g>
    </g>
</svg>