<?xml version="1.0" encoding="UTF-8"?>
<svg width="613px" height="613px" viewBox="0 0 613 613" version="1.1" xmlns="http://www.w3.org/2000/svg" xmlns:xlink="http://www.w3.org/1999/xlink">
    <!-- Generator: Sketch 45.2 (43514) - http://www.bohemiancoding.com/sketch -->
    <title>Group 2</title>
    <desc>Created with Sketch.</desc>
    <defs></defs>
    <g id="Page-1" stroke="none" stroke-width="1" fill="none" fill-rule="evenodd">
        <g id="Group-2">
            <g id="Group" fill="#6C3CCC">
                <rect id="Rectangle" x="0" y="0" width="613" height="613" rx="20"></rect>
            </g>
            <path d="M509.666,344.503 C506.178,344.503 502.69,344.964 499.295,345.873 C495.768,346.818 492.438,348.211 489.344,350.034 L453.143,336.254 C455.041,326.65 456,316.846 456,307 C456,277.24 447.434,248.818 431.148,224.275 L486.459,168.964 C491.504,170.315 496.707,170.998 502.002,170.998 C535.086,170.998 562.002,144.082 562.002,110.998 C562.002,77.915 535.086,51 502.002,51 C468.918,51 442.002,77.915 442.002,110.998 C442.002,116.291 442.684,121.494 444.033,126.538 L388.722,181.849 C375.544,173.104 361.242,166.609 346.222,162.448 L353.345,128.12 C359.825,127.252 365.814,124.31 370.519,119.608 C382.212,107.912 382.212,88.88 370.517,77.182 C364.849,71.516 357.316,68.396 349.304,68.396 C341.29,68.396 333.757,71.517 328.093,77.182 C322.425,82.848 319.304,90.382 319.304,98.396 C319.304,106.409 322.425,113.943 328.091,119.608 C329.82,121.337 331.724,122.826 333.761,124.065 L326.632,158.414 C319.849,157.487 312.962,156.999 305.999,156.999 C266.573,156.999 228.704,172.619 200.741,200.142 L129.951,149.012 C128.914,127.874 111.391,110.998 90,110.998 C67.943,110.998 50,128.941 50,150.997 C50,173.054 67.943,190.998 90,190.998 C93.652,190.998 97.229,190.514 100.688,189.554 L171.442,240.657 C161.317,261.19 155.999,283.943 155.999,306.999 C155.999,319.728 157.638,332.294 160.77,344.418 L127.413,355.434 C123.421,350.255 117.878,346.539 111.456,344.819 C108.913,344.137 106.296,343.792 103.679,343.792 C90.132,343.792 78.222,352.938 74.714,366.033 C70.433,382.011 79.948,398.493 95.925,402.775 C98.47,403.457 101.087,403.803 103.704,403.803 C117.251,403.803 129.161,394.657 132.669,381.563 C133.304,379.201 133.64,376.807 133.694,374.423 L167.046,363.408 C174.396,381.497 185.251,398.14 199.144,412.255 L148.015,483.046 C126.877,484.085 110,501.608 110,522.999 C110,545.055 127.943,563 150.002,563 C172.057,563 190,545.055 190,522.999 C190,519.347 189.516,515.77 188.557,512.31 L239.657,441.556 C260.192,451.683 282.946,457 306.001,457 C332.474,457 357.749,450.143 379.806,437.698 L409.98,483.681 C406.136,488.724 403.847,495.012 403.847,501.828 C403.847,518.37 417.306,531.827 433.851,531.827 C450.392,531.827 463.849,518.37 463.849,501.828 C463.849,485.286 450.392,471.829 433.851,471.829 C431.384,471.829 428.99,472.134 426.695,472.698 L396.529,426.73 C411.972,415.037 425.22,400.273 435.363,382.984 L471.576,396.768 C476.863,413.205 492.238,424.519 509.633,424.517 C513.123,424.517 516.612,424.056 520.004,423.146 C530.324,420.381 538.949,413.763 544.293,404.51 C549.635,395.257 551.053,384.477 548.287,374.157 C543.605,356.697 527.725,344.503 509.666,344.503 Z M113.35,376.386 C112.18,380.753 108.213,383.803 103.703,383.803 C102.834,383.803 101.959,383.687 101.102,383.457 C95.776,382.03 92.604,376.535 94.032,371.208 C95.202,366.842 99.169,363.792 103.678,363.792 C104.547,363.792 105.422,363.908 106.28,364.138 C108.86,364.829 111.016,366.484 112.352,368.798 C113.688,371.11 114.041,373.805 113.35,376.386 Z M433.85,491.828 C439.363,491.828 443.848,496.313 443.848,501.827 C443.848,507.341 439.364,511.826 433.85,511.826 C428.334,511.826 423.846,507.34 423.846,501.827 C423.846,496.313 428.334,491.828 433.85,491.828 Z M342.236,91.321 C344.123,89.433 346.633,88.393 349.304,88.393 C351.974,88.393 354.486,89.434 356.374,91.321 C360.272,95.22 360.272,101.565 356.376,105.463 C354.485,107.352 351.974,108.393 349.304,108.393 C346.632,108.393 344.122,107.353 342.234,105.463 C340.343,103.574 339.304,101.063 339.304,98.393 C339.305,95.723 340.344,93.211 342.236,91.321 Z" id="Shape" fill="#FFFFFF" fill-rule="nonzero"></path>
        </g>
    </g>
</svg>