<?xml version="1.0" encoding="UTF-8"?>
<svg width="169px" height="40px" viewBox="0 0 169 40" version="1.1" xmlns="http://www.w3.org/2000/svg" xmlns:xlink="http://www.w3.org/1999/xlink">
    <!-- Generator: Sketch 45.2 (43514) - http://www.bohemiancoding.com/sketch -->
    <title>Group</title>
    <desc>Created with Sketch.</desc>
    <defs></defs>
    <g id="Page-1" stroke="none" stroke-width="1" fill="none" fill-rule="evenodd">
        <g id="Group" transform="translate(0.000000, -2.000000)" fill="#4CAE46">
            <text id="COVID-19" font-family="Montserrat-SemiBold, Montserrat" font-size="20.5223" font-weight="500" letter-spacing="-0.3078345">
                <tspan x="43.2578" y="20.2979868">C</tspan>
                <tspan x="56.9051295" y="20.2979868" letter-spacing="-0.4514906">O</tspan>
                <tspan x="72.7893897" y="20.2979868">V</tspan>
                <tspan x="87.175522" y="20.2979868">ID 19</tspan>
            </text>
            <text id="NOVEL-CORONAVIRUS" font-family="LucidaGrande, Lucida Grande" font-size="11.4236" font-weight="normal" letter-spacing="0.1199">
                <tspan x="45.577" y="34.8640336">NOVEL CORON</tspan>
                <tspan x="128.891466" y="34.8640336" letter-spacing="-0.16454764">A</tspan>
                <tspan x="136.608533" y="34.8640336">VIRUS</tspan>
            </text>
            <path d="M28.629,27.936 C29.495,26.443 29.993,24.703 29.993,22.85 C29.993,21.13 29.566,19.512 28.813,18.09 C28.719,18.337 28.594,18.568 28.434,18.783 C27.227,20.366 24.539,20.347 22.427,18.74 C20.315,17.134 19.579,14.548 20.782,12.965 L20.982,12.738 C20.598,12.695 20.21,12.667 19.814,12.667 C16.789,12.667 14.07,13.992 12.205,16.088 C13.964,13.055 17.248,11.018 21.005,11.018 C26.627,11.018 31.184,15.575 31.184,21.197 C31.184,23.783 30.22,26.141 28.629,27.936 Z M38.252,19.073 L38.095,19.097 L37.903,19.073 C37.284,19.073 36.743,19.704 36.45,20.648 C36.332,21.017 36.011,21.287 35.627,21.326 L34.502,21.436 C33.989,21.487 33.515,21.126 33.448,20.613 C33.35,19.857 33.19,19.124 32.97,18.415 C32.822,17.929 33.096,17.408 33.578,17.244 L33.762,17.177 C34.099,17.063 34.471,17.142 34.73,17.385 C35.023,17.655 35.341,17.776 35.588,17.667 L35.678,17.616 L35.76,17.596 C36.12,17.443 36.113,16.605 35.741,15.731 C35.368,14.858 34.773,14.27 34.408,14.427 L34.338,14.47 L34.24,14.497 C33.989,14.603 33.856,14.912 33.848,15.316 C33.84,15.669 33.644,15.994 33.327,16.154 L33.155,16.245 C32.688,16.48 32.128,16.299 31.873,15.841 C31.556,15.277 31.199,14.736 30.808,14.227 C30.486,13.811 30.545,13.22 30.953,12.887 L31.834,12.166 C32.132,11.919 32.547,11.884 32.892,12.064 C33.77,12.519 34.596,12.585 35.035,12.15 L35.157,11.994 L35.282,11.903 C35.807,11.375 35.204,9.913 33.93,8.64 C32.657,7.366 31.196,6.759 30.667,7.288 L30.573,7.413 L30.42,7.535 C29.985,7.97 30.048,8.8 30.506,9.678 C30.686,10.019 30.647,10.438 30.404,10.736 L29.683,11.617 C29.358,12.013 28.774,12.091 28.367,11.778 C27.771,11.32 27.141,10.912 26.471,10.56 C26.02,10.317 25.848,9.756 26.071,9.294 L26.153,9.122 C26.31,8.804 26.627,8.597 26.984,8.585 C27.383,8.569 27.689,8.428 27.791,8.177 L27.818,8.076 L27.861,8.005 C28.006,7.641 27.411,7.057 26.529,6.7 C25.648,6.344 24.813,6.352 24.664,6.72 L24.645,6.798 L24.598,6.888 C24.496,7.143 24.617,7.453 24.896,7.743 C25.142,7.997 25.232,8.369 25.123,8.706 L25.064,8.891 C24.899,9.388 24.374,9.655 23.873,9.513 C23.258,9.337 22.623,9.208 21.977,9.122 C21.456,9.055 21.079,8.597 21.13,8.076 L21.244,6.943 C21.283,6.555 21.55,6.238 21.922,6.121 C22.866,5.823 23.497,5.282 23.497,4.667 L23.473,4.471 L23.497,4.318 C23.497,3.57 22.035,2.967 20.233,2.967 C18.431,2.967 16.969,3.57 16.969,4.318 L16.993,4.471 L16.969,4.667 C16.969,5.282 17.604,5.823 18.548,6.121 C18.917,6.238 19.183,6.555 19.222,6.943 L19.336,8.064 C19.387,8.581 19.026,9.055 18.513,9.122 C17.757,9.216 17.024,9.376 16.315,9.596 C15.825,9.745 15.308,9.47 15.14,8.988 L15.077,8.804 C14.96,8.471 15.042,8.099 15.281,7.837 C15.555,7.543 15.673,7.229 15.567,6.979 L15.516,6.888 L15.496,6.81 C15.34,6.446 14.505,6.454 13.631,6.826 C12.754,7.202 12.17,7.797 12.327,8.158 L12.37,8.228 L12.397,8.33 C12.503,8.577 12.812,8.71 13.212,8.718 C13.569,8.726 13.89,8.926 14.055,9.243 L14.141,9.416 C14.38,9.882 14.196,10.442 13.741,10.697 C13.177,11.01 12.636,11.367 12.123,11.762 C11.708,12.08 11.116,12.025 10.787,11.617 L10.062,10.736 C9.819,10.438 9.784,10.019 9.96,9.678 C10.419,8.8 10.485,7.97 10.046,7.535 L9.894,7.413 L9.8,7.288 C9.275,6.759 7.813,7.366 6.536,8.64 C5.263,9.913 4.659,11.375 5.188,11.903 L5.314,11.994 L5.435,12.15 C5.87,12.585 6.697,12.519 7.574,12.064 C7.919,11.884 8.334,11.919 8.636,12.166 L9.518,12.887 C9.913,13.212 9.992,13.796 9.678,14.203 C9.22,14.795 8.812,15.43 8.456,16.096 C8.217,16.55 7.653,16.723 7.194,16.499 L7.022,16.413 C6.701,16.26 6.497,15.939 6.481,15.586 C6.465,15.183 6.328,14.877 6.074,14.775 L5.976,14.748 L5.905,14.709 C5.541,14.56 4.953,15.155 4.6,16.041 C4.244,16.922 4.252,17.757 4.616,17.906 L4.699,17.921 L4.789,17.972 C5.039,18.074 5.353,17.949 5.643,17.671 C5.897,17.424 6.266,17.338 6.606,17.447 L6.787,17.506 C7.284,17.667 7.551,18.192 7.41,18.697 C7.237,19.312 7.104,19.943 7.022,20.593 C6.955,21.111 6.497,21.491 5.972,21.436 L4.839,21.326 C4.456,21.287 4.134,21.017 4.021,20.648 C3.723,19.704 3.182,19.073 2.567,19.073 L2.371,19.097 L2.218,19.073 C1.47,19.073 0.863,20.535 0.863,22.333 C0.863,24.135 1.47,25.597 2.218,25.597 L2.371,25.573 L2.567,25.597 C3.182,25.597 3.723,24.966 4.021,24.022 C4.134,23.653 4.456,23.383 4.839,23.344 L5.964,23.234 C6.477,23.183 6.951,23.544 7.018,24.057 C7.116,24.813 7.276,25.546 7.496,26.255 C7.645,26.741 7.37,27.262 6.889,27.426 L6.704,27.493 C6.367,27.607 5.999,27.528 5.737,27.285 C5.443,27.015 5.129,26.894 4.879,27.003 L4.789,27.054 L4.71,27.074 C4.346,27.227 4.354,28.065 4.726,28.939 C5.098,29.812 5.694,30.4 6.058,30.243 L6.128,30.2 L6.227,30.173 C6.477,30.067 6.61,29.758 6.618,29.354 C6.626,29.001 6.822,28.676 7.139,28.516 L7.316,28.425 C7.778,28.19 8.338,28.371 8.593,28.829 C8.91,29.393 9.267,29.934 9.659,30.443 C9.98,30.859 9.921,31.45 9.518,31.783 L8.636,32.504 C8.334,32.751 7.919,32.786 7.574,32.606 C6.697,32.151 5.87,32.085 5.435,32.52 L5.314,32.676 L5.188,32.767 C4.659,33.296 5.263,34.757 6.536,36.03 C7.813,37.304 9.275,37.911 9.8,37.382 L9.894,37.257 L10.046,37.135 C10.485,36.7 10.419,35.87 9.96,34.992 C9.784,34.651 9.819,34.232 10.062,33.934 L10.787,33.053 C11.112,32.657 11.696,32.579 12.099,32.892 C12.695,33.35 13.33,33.758 13.996,34.11 C14.446,34.353 14.619,34.914 14.395,35.376 L14.313,35.548 C14.156,35.866 13.839,36.073 13.482,36.085 C13.083,36.101 12.777,36.242 12.675,36.493 L12.648,36.594 L12.605,36.665 C12.46,37.029 13.055,37.613 13.937,37.97 C14.818,38.326 15.657,38.318 15.802,37.95 L15.822,37.872 L15.872,37.782 C15.974,37.527 15.849,37.217 15.571,36.927 C15.324,36.673 15.238,36.301 15.348,35.964 L15.406,35.779 C15.567,35.282 16.092,35.016 16.593,35.157 C17.208,35.333 17.843,35.462 18.49,35.548 C19.011,35.615 19.387,36.073 19.336,36.594 L19.222,37.727 C19.183,38.115 18.917,38.432 18.548,38.549 C17.604,38.847 16.969,39.388 16.969,40.003 L16.993,40.199 L16.969,40.352 C16.969,41.1 18.431,41.703 20.233,41.703 C22.035,41.703 23.497,41.1 23.497,40.352 L23.473,40.199 L23.497,40.003 C23.497,39.388 22.866,38.847 21.922,38.549 C21.55,38.432 21.283,38.115 21.244,37.727 L21.13,36.606 C21.079,36.089 21.444,35.615 21.957,35.548 C22.709,35.454 23.442,35.294 24.151,35.074 C24.641,34.925 25.158,35.2 25.326,35.682 L25.389,35.866 C25.507,36.199 25.424,36.571 25.185,36.833 C24.911,37.127 24.794,37.441 24.899,37.691 L24.95,37.782 L24.974,37.86 C25.127,38.224 25.961,38.216 26.839,37.844 C27.713,37.468 28.296,36.873 28.144,36.512 L28.1,36.442 L28.069,36.34 C27.963,36.093 27.654,35.96 27.254,35.952 C26.898,35.944 26.576,35.744 26.416,35.427 L26.326,35.254 C26.09,34.788 26.271,34.228 26.725,33.973 C27.293,33.66 27.83,33.303 28.343,32.908 C28.759,32.59 29.35,32.645 29.683,33.053 L30.404,33.934 C30.647,34.232 30.686,34.651 30.506,34.992 C30.048,35.87 29.985,36.7 30.42,37.135 L30.573,37.257 L30.667,37.382 C31.196,37.911 32.657,37.304 33.93,36.03 C35.204,34.757 35.807,33.296 35.282,32.767 L35.157,32.676 L35.035,32.52 C34.596,32.085 33.77,32.151 32.892,32.606 C32.547,32.786 32.132,32.751 31.834,32.504 L30.949,31.783 C30.553,31.458 30.475,30.874 30.788,30.467 C31.247,29.875 31.658,29.24 32.011,28.574 C32.249,28.12 32.814,27.947 33.276,28.171 L33.448,28.257 C33.766,28.41 33.969,28.731 33.985,29.084 C34.001,29.487 34.138,29.793 34.393,29.895 L34.491,29.922 L34.561,29.961 C34.929,30.11 35.513,29.515 35.87,28.629 C36.222,27.748 36.214,26.913 35.85,26.764 L35.768,26.749 L35.678,26.698 C35.427,26.596 35.114,26.721 34.824,26.999 C34.569,27.246 34.201,27.332 33.864,27.223 L33.68,27.164 C33.182,27.003 32.916,26.478 33.057,25.973 C33.229,25.358 33.362,24.727 33.444,24.077 C33.515,23.559 33.973,23.179 34.495,23.234 L35.627,23.344 C36.011,23.383 36.332,23.653 36.45,24.022 C36.743,24.966 37.284,25.597 37.903,25.597 L38.095,25.573 L38.252,25.597 C38.996,25.597 39.604,24.135 39.604,22.333 C39.604,20.535 38.996,19.073 38.252,19.073 L38.252,19.073 Z" id="Fill-12"></path>
        </g>
    </g>
</svg>