<?xml version="1.0" encoding="UTF-8"?>
<svg width="169px" height="40px" viewBox="0 0 169 40" version="1.1" xmlns="http://www.w3.org/2000/svg" xmlns:xlink="http://www.w3.org/1999/xlink">
    <!-- Generator: Sketch 45.2 (43514) - http://www.bohemiancoding.com/sketch -->
    <title>Group 2</title>
    <desc>Created with Sketch.</desc>
    <defs></defs>
    <g id="Page-1" stroke="none" stroke-width="1" fill="none" fill-rule="evenodd">
        <g id="logo-covid">
            <g id="Group-2">
                <g id="NOVEL-CORONAVIRUS" transform="translate(46.000000, 24.000000)"></g>
                <g id="COVID-19" transform="translate(43.000000, 3.000000)" fill="#E30710">
                    <path d="M12.4275239,5.1599706 L14.0282633,3.1487852 C12.6327469,1.7327465 10.5394723,0.8502876 8.4872423,0.8502876 C4.1980816,0.8502876 0.8939913,3.9901995 0.8939913,8.0946595 C0.8939913,12.2401641 4.157037,15.4211206 8.3846308,15.4211206 C10.4573831,15.4211206 12.57118,14.4565725 14.0487856,12.9584446 L12.4275239,11.1524822 C11.3603643,12.1991195 9.903281,12.8353108 8.5282869,12.8353108 C5.8193433,12.8353108 3.7055464,10.7420362 3.7055464,8.0536149 C3.7055464,5.3857159 5.8193433,3.2924413 8.5282869,3.2924413 C9.9443256,3.2924413 11.4014089,4.0107218 12.4275239,5.1599706 Z" id="C"></path>
                    <path d="M22.1961387,0.8502876 C26.526344,0.8502876 29.8509566,3.9901995 29.8509566,8.1151818 C29.8509566,12.2401641 26.526344,15.4211206 22.1961387,15.4211206 C17.8659334,15.4211206 14.5413208,12.2401641 14.5413208,8.1151818 C14.5413208,3.9696772 17.8659334,0.8502876 22.1961387,0.8502876 Z M22.2371833,3.3129636 C19.5692843,3.3129636 17.3528759,5.4062382 17.3528759,8.1151818 C17.3528759,10.8241254 19.5898066,12.9584446 22.2371833,12.9584446 C24.8640377,12.9584446 27.0394015,10.8241254 27.0394015,8.1151818 C27.0394015,5.4062382 24.8640377,3.3129636 22.2371833,3.3129636 Z" id="O"></path>
                    <polygon id="V" points="29.8304343 0.9323768 35.5151114 15.2979868 38.3677111 15.2979868 44.1139551 0.9323768 41.2818777 0.9323768 37.0132393 12.2401641 32.7856455 0.9323768"></polygon>
                    <path d="M45.9404398,0.9323768 L45.9404398,15.2979868 L48.690428,15.2979868 L48.690428,0.9323768 L45.9404398,0.9323768 Z M58.1922529,0.9323768 C62.5429805,0.9323768 65.6828924,3.9081103 65.6828924,8.1151818 C65.6828924,12.301731 62.5224582,15.2979868 58.0896414,15.2979868 L52.2202636,15.2979868 L52.2202636,0.9323768 L58.1922529,0.9323768 Z M58.2538198,12.8763554 C60.9011965,12.8763554 62.8713373,10.9267369 62.8713373,8.1357041 C62.8713373,5.324149 60.8396296,3.3540082 58.1512083,3.3540082 L54.9702518,3.3540082 L54.9702518,12.8763554 L58.2538198,12.8763554 Z M73.5839779,0.9118545 L73.5839779,3.3334859 L76.5802337,3.3334859 L76.5802337,15.2979868 L79.3507442,15.2979868 L79.3507442,0.9118545 L73.5839779,0.9118545 Z M86.3283262,12.2606864 C87.1902628,12.8353108 88.3395116,13.1636676 89.4271935,13.1636676 C92.0745702,13.1636676 93.3059082,11.2550937 93.2443413,8.3614494 C92.5055385,9.5927874 91.2331559,10.2700233 89.4887604,10.2700233 C86.656683,10.2700233 84.8917652,8.4640609 84.8917652,5.6525058 C84.8917652,2.65625 86.9234729,0.7887207 89.9812956,0.7887207 C93.634265,0.7887207 95.891718,3.4155751 95.891718,7.8278696 C95.891718,12.4248648 93.4495643,15.4211206 89.6118942,15.4211206 C88.1548109,15.4211206 86.45146,14.96963 85.2816889,14.2923941 L86.3283262,12.2606864 Z M90.1044294,3.1077406 C88.50369,3.1077406 87.4365304,4.0517664 87.4365304,5.6730281 C87.4365304,7.1916783 88.4216008,8.1357041 90.0223402,8.1357041 C91.8283026,8.1357041 92.8749399,6.9864553 92.8544176,5.5909389 C92.8749399,4.4006455 92.0335256,3.1077406 90.1044294,3.1077406 Z" id="ID-19"></path>
                </g>
                <path d="M46.6423846,32.8640336 L46.6423846,24.6086977 L47.7914381,24.6086977 L51.9469957,30.9842713 L51.9469957,24.6086977 L52.951023,24.6086977 L52.951023,32.8640336 L51.8075475,32.8640336 L47.6464119,26.48846 L47.6464119,32.8640336 L46.6423846,32.8640336 Z M58.4062383,33.070417 C57.2608977,33.070417 56.3396188,32.6734583 55.6423741,31.879529 C54.9451294,31.0855997 54.5965123,30.0360298 54.5965123,28.7307877 C54.5965123,27.4181084 54.9469887,26.3685384 55.6479521,25.5820464 C56.3489154,24.7955544 57.2850686,24.4023143 58.4564396,24.4023143 C59.6240921,24.4023143 60.5593156,24.7946247 61.2621383,25.5792574 C61.9649609,26.3638901 62.316367,27.4106711 62.316367,28.7196318 C62.316367,30.054623 61.9649609,31.1134894 61.2621383,31.8962628 C60.5593156,32.6790362 59.6073585,33.070417 58.4062383,33.070417 Z M58.4229721,32.194682 C59.267103,32.194682 59.9197142,31.8906879 60.3808254,31.2826905 C60.8419366,30.6746932 61.0724887,29.8166302 61.0724887,28.708476 C61.0724887,27.6337895 60.8410069,26.7933898 60.3780364,26.1872518 C59.9150659,25.5811137 59.2745401,25.2780492 58.4564396,25.2780492 C57.6346206,25.2780492 56.9931651,25.5820434 56.5320539,26.1900407 C56.0709427,26.7980381 55.8403906,27.643086 55.8403906,28.7252098 C55.8403906,29.8036149 56.0690835,30.6514517 56.526476,31.2687457 C56.9838685,31.8860397 57.6160275,32.194682 58.4229721,32.194682 Z M66.2097619,32.8640336 L63.0916992,24.6086977 L64.2630645,24.6086977 L66.8177563,31.3691484 L69.2832012,24.6086977 L70.3095402,24.6086977 L67.314192,32.8640336 L66.2097619,32.8640336 Z M71.4251262,32.8640336 L71.4251262,24.6086977 L76.038074,24.6086977 L76.038074,25.4844326 L72.5964914,25.4844326 L72.5964914,28.1339492 L75.4802811,28.1339492 L75.4802811,28.9985283 L72.5964914,28.9985283 L72.5964914,31.9882986 L76.277925,31.9882986 L76.277925,32.8640336 L71.4251262,32.8640336 Z M77.6166281,32.8640336 L77.6166281,24.6086977 L78.7879934,24.6086977 L78.7879934,31.9882986 L82.5028945,31.9882986 L82.5028945,32.8640336 L77.6166281,32.8640336 Z M90.8586332,33.070417 C89.575703,33.070417 88.5847007,32.6939105 87.8855967,31.9408862 C87.1864927,31.187862 86.8369459,30.1215584 86.8369459,28.7419436 C86.8369459,27.3660474 87.1930002,26.2988142 87.9051194,25.5402119 C88.6172387,24.7816097 89.6203263,24.4023143 90.9144125,24.4023143 C91.6544215,24.4023143 92.5208513,24.5231682 93.5137277,24.7648797 L93.5137277,25.8637318 C92.3832617,25.4732748 91.511254,25.2780492 90.8976787,25.2780492 C90.0014869,25.2780492 89.3079712,25.5811137 88.8171109,26.1872518 C88.3262507,26.7933898 88.0808242,27.6486638 88.0808242,28.7530994 C88.0808242,29.8054741 88.3429843,30.6356476 88.8673123,31.243645 C89.3916403,31.8516424 90.1074675,32.1556365 91.0148152,32.1556365 C91.7957293,32.1556365 92.6324104,31.915788 93.5248836,31.4360836 L93.5248836,32.4401109 C92.7105018,32.8603171 91.8217605,33.070417 90.8586332,33.070417 Z M98.5505982,33.070417 C97.4052576,33.070417 96.4839788,32.6734583 95.7867341,31.879529 C95.0894894,31.0855997 94.7408723,30.0360298 94.7408723,28.7307877 C94.7408723,27.4181084 95.0913487,26.3685384 95.792312,25.5820464 C96.4932753,24.7955544 97.4294285,24.4023143 98.6007996,24.4023143 C99.7684521,24.4023143 100.703676,24.7946247 101.406498,25.5792574 C102.109321,26.3638901 102.460727,27.4106711 102.460727,28.7196318 C102.460727,30.054623 102.109321,31.1134894 101.406498,31.8962628 C100.703676,32.6790362 99.7517184,33.070417 98.5505982,33.070417 Z M98.567332,32.194682 C99.4114629,32.194682 100.064074,31.8906879 100.525185,31.2826905 C100.986297,30.6746932 101.216849,29.8166302 101.216849,28.708476 C101.216849,27.6337895 100.985367,26.7933898 100.522396,26.1872518 C100.059426,25.5811137 99.4189001,25.2780492 98.6007996,25.2780492 C97.7789805,25.2780492 97.137525,25.5820434 96.6764139,26.1900407 C96.2153027,26.7980381 95.9847506,27.643086 95.9847506,28.7252098 C95.9847506,29.8036149 96.2134434,30.6514517 96.6708359,31.2687457 C97.1282285,31.8860397 97.7603875,32.194682 98.567332,32.194682 Z M104.100638,32.8640336 L104.100638,24.6086977 L106.599551,24.6086977 C107.391621,24.6086977 107.998679,24.783471 108.420745,25.1330231 C108.84281,25.4825751 109.05384,25.9901616 109.05384,26.6557979 C109.05384,27.7565148 108.497912,28.5374172 107.386039,28.9985283 L110.141536,32.8640336 L108.70243,32.8640336 L106.354122,29.3722496 L105.260848,29.3722496 L105.260848,32.8640336 L104.100638,32.8640336 Z M105.260848,28.4965147 L105.640147,28.4965147 C107.112728,28.4965147 107.849007,27.9182751 107.849007,26.7617785 C107.849007,25.9102103 107.231722,25.4844326 105.997134,25.4844326 L105.260848,25.4844326 L105.260848,28.4965147 Z M114.648503,33.070417 C113.503163,33.070417 112.581884,32.6734583 111.884639,31.879529 C111.187394,31.0855997 110.838777,30.0360298 110.838777,28.7307877 C110.838777,27.4181084 111.189254,26.3685384 111.890217,25.5820464 C112.59118,24.7955544 113.527334,24.4023143 114.698705,24.4023143 C115.866357,24.4023143 116.801581,24.7946247 117.504403,25.5792574 C118.207226,26.3638901 118.558632,27.4106711 118.558632,28.7196318 C118.558632,30.054623 118.207226,31.1134894 117.504403,31.8962628 C116.801581,32.6790362 115.849624,33.070417 114.648503,33.070417 Z M114.665237,32.194682 C115.509368,32.194682 116.161979,31.8906879 116.62309,31.2826905 C117.084202,30.6746932 117.314754,29.8166302 117.314754,28.708476 C117.314754,27.6337895 117.083272,26.7933898 116.620301,26.1872518 C116.157331,25.5811137 115.516805,25.2780492 114.698705,25.2780492 C113.876886,25.2780492 113.23543,25.5820434 112.774319,26.1900407 C112.313208,26.7980381 112.082656,27.643086 112.082656,28.7252098 C112.082656,29.8036149 112.311348,30.6514517 112.768741,31.2687457 C113.226134,31.8860397 113.858293,32.194682 114.665237,32.194682 Z M120.198543,32.8640336 L120.198543,24.6086977 L121.347597,24.6086977 L125.503154,30.9842713 L125.503154,24.6086977 L126.507182,24.6086977 L126.507182,32.8640336 L125.363706,32.8640336 L121.202571,26.48846 L121.202571,32.8640336 L120.198543,32.8640336 Z" id="NOVEL-CORON" fill="#8B8B8B"></path>
                <path d="M134.140298,29.7069254 L132.73466,26.1482063 L131.323443,29.7069254 L134.140298,29.7069254 Z M135.378598,32.8640336 L134.480552,30.5770824 L130.98319,30.5770824 L130.073987,32.8640336 L128.986291,32.8640336 L132.260536,24.6086977 L133.420745,24.6086977 L136.644788,32.8640336 L135.378598,32.8640336 Z" id="A" fill="#8B8B8B"></path>
                <path d="M139.927401,32.8640336 L136.809338,24.6086977 L137.980704,24.6086977 L140.535396,31.3691484 L143.00084,24.6086977 L144.027179,24.6086977 L141.031831,32.8640336 L139.927401,32.8640336 Z M145.137187,32.8640336 L145.137187,24.6086977 L146.308553,24.6086977 L146.308553,32.8640336 L145.137187,32.8640336 Z M148.433744,32.8640336 L148.433744,24.6086977 L150.932656,24.6086977 C151.724726,24.6086977 152.331785,24.783471 152.75385,25.1330231 C153.175916,25.4825751 153.386946,25.9901616 153.386946,26.6557979 C153.386946,27.7565148 152.831017,28.5374172 151.719145,28.9985283 L154.474642,32.8640336 L153.035536,32.8640336 L150.687228,29.3722496 L149.593953,29.3722496 L149.593953,32.8640336 L148.433744,32.8640336 Z M149.593953,28.4965147 L149.973253,28.4965147 C151.445833,28.4965147 152.182113,27.9182751 152.182113,26.7617785 C152.182113,25.9102103 151.564828,25.4844326 150.33024,25.4844326 L149.593953,25.4844326 L149.593953,28.4965147 Z M155.590228,24.6086977 L156.761593,24.6086977 L156.761593,29.818484 C156.761593,30.6477404 156.914984,31.2510804 157.221772,31.6285222 C157.52856,32.005964 158.016624,32.194682 158.685979,32.194682 C159.340459,32.194682 159.804352,32.0171197 160.077672,31.6619898 C160.350992,31.3068598 160.48765,30.7053791 160.48765,29.8575295 L160.48765,24.6086977 L161.513989,24.6086977 L161.513989,29.8407957 C161.513989,30.9675431 161.282507,31.7874906 160.819537,32.3006627 C160.356566,32.8138348 159.619357,33.070417 158.607888,33.070417 C157.577825,33.070417 156.817375,32.8045383 156.326514,32.2727731 C155.835654,31.7410078 155.590228,30.919201 155.590228,29.8073281 L155.590228,24.6086977 Z M165.189845,33.070417 C164.635768,33.070417 163.927378,32.9495631 163.064654,32.7078516 L163.064654,31.5476422 C163.994313,31.9790042 164.758482,32.194682 165.357183,32.194682 C165.818294,32.194682 166.189222,32.0738281 166.46998,31.8321166 C166.750737,31.5904051 166.891113,31.2724663 166.891113,30.8782906 C166.891113,30.5547691 166.799078,30.279594 166.615006,30.052757 C166.430933,29.8259201 166.091612,29.5730565 165.597034,29.2941586 L165.028085,28.9650607 C164.325262,28.5634478 163.829761,28.185082 163.541566,27.8299521 C163.253372,27.4748221 163.109277,27.0611298 163.109277,26.5888627 C163.109277,25.9529755 163.339829,25.429585 163.80094,25.0186755 C164.262051,24.607766 164.849587,24.4023143 165.563566,24.4023143 C166.199453,24.4023143 166.870657,24.5082939 167.577199,24.7202563 L167.577199,25.7912188 C166.707037,25.449104 166.058145,25.2780492 165.630501,25.2780492 C165.22517,25.2780492 164.890497,25.3858881 164.626474,25.6015691 C164.36245,25.8172502 164.230441,26.0887067 164.230441,26.4159469 C164.230441,26.6911261 164.327124,26.9346933 164.520493,27.1466557 C164.713862,27.3586181 165.067128,27.6114817 165.5803,27.9052541 L166.17156,28.2399299 C166.885539,28.6452615 167.383829,29.0282755 167.666446,29.3889834 C167.949062,29.7496913 168.090368,30.1829062 168.090368,30.688641 C168.090368,31.4063382 167.825419,31.9827185 167.295513,32.4177992 C166.765607,32.8528799 166.063725,33.070417 165.189845,33.070417 Z" id="VIRUS" fill="#8B8B8B"></path>
                <path d="M28.629,25.936 C29.495,24.443 29.993,22.703 29.993,20.85 C29.993,19.13 29.566,17.512 28.813,16.09 C28.719,16.337 28.594,16.568 28.434,16.783 C27.227,18.366 24.539,18.347 22.427,16.74 C20.315,15.134 19.579,12.548 20.782,10.965 L20.982,10.738 C20.598,10.695 20.21,10.667 19.814,10.667 C16.789,10.667 14.07,11.992 12.205,14.088 C13.964,11.055 17.248,9.018 21.005,9.018 C26.627,9.018 31.184,13.575 31.184,19.197 C31.184,21.783 30.22,24.141 28.629,25.936 Z M38.252,17.073 L38.095,17.097 L37.903,17.073 C37.284,17.073 36.743,17.704 36.45,18.648 C36.332,19.017 36.011,19.287 35.627,19.326 L34.502,19.436 C33.989,19.487 33.515,19.126 33.448,18.613 C33.35,17.857 33.19,17.124 32.97,16.415 C32.822,15.929 33.096,15.408 33.578,15.244 L33.762,15.177 C34.099,15.063 34.471,15.142 34.73,15.385 C35.023,15.655 35.341,15.776 35.588,15.667 L35.678,15.616 L35.76,15.596 C36.12,15.443 36.113,14.605 35.741,13.731 C35.368,12.858 34.773,12.27 34.408,12.427 L34.338,12.47 L34.24,12.497 C33.989,12.603 33.856,12.912 33.848,13.316 C33.84,13.669 33.644,13.994 33.327,14.154 L33.155,14.245 C32.688,14.48 32.128,14.299 31.873,13.841 C31.556,13.277 31.199,12.736 30.808,12.227 C30.486,11.811 30.545,11.22 30.953,10.887 L31.834,10.166 C32.132,9.919 32.547,9.884 32.892,10.064 C33.77,10.519 34.596,10.585 35.035,10.15 L35.157,9.994 L35.282,9.903 C35.807,9.375 35.204,7.913 33.93,6.64 C32.657,5.366 31.196,4.759 30.667,5.288 L30.573,5.413 L30.42,5.535 C29.985,5.97 30.048,6.8 30.506,7.678 C30.686,8.019 30.647,8.438 30.404,8.736 L29.683,9.617 C29.358,10.013 28.774,10.091 28.367,9.778 C27.771,9.32 27.141,8.912 26.471,8.56 C26.02,8.317 25.848,7.756 26.071,7.294 L26.153,7.122 C26.31,6.804 26.627,6.597 26.984,6.585 C27.383,6.569 27.689,6.428 27.791,6.177 L27.818,6.076 L27.861,6.005 C28.006,5.641 27.411,5.057 26.529,4.7 C25.648,4.344 24.813,4.352 24.664,4.72 L24.645,4.798 L24.598,4.888 C24.496,5.143 24.617,5.453 24.896,5.743 C25.142,5.997 25.232,6.369 25.123,6.706 L25.064,6.891 C24.899,7.388 24.374,7.655 23.873,7.513 C23.258,7.337 22.623,7.208 21.977,7.122 C21.456,7.055 21.079,6.597 21.13,6.076 L21.244,4.943 C21.283,4.555 21.55,4.238 21.922,4.121 C22.866,3.823 23.497,3.282 23.497,2.667 L23.473,2.471 L23.497,2.318 C23.497,1.57 22.035,0.967 20.233,0.967 C18.431,0.967 16.969,1.57 16.969,2.318 L16.993,2.471 L16.969,2.667 C16.969,3.282 17.604,3.823 18.548,4.121 C18.917,4.238 19.183,4.555 19.222,4.943 L19.336,6.064 C19.387,6.581 19.026,7.055 18.513,7.122 C17.757,7.216 17.024,7.376 16.315,7.596 C15.825,7.745 15.308,7.47 15.14,6.988 L15.077,6.804 C14.96,6.471 15.042,6.099 15.281,5.837 C15.555,5.543 15.673,5.229 15.567,4.979 L15.516,4.888 L15.496,4.81 C15.34,4.446 14.505,4.454 13.631,4.826 C12.754,5.202 12.17,5.797 12.327,6.158 L12.37,6.228 L12.397,6.33 C12.503,6.577 12.812,6.71 13.212,6.718 C13.569,6.726 13.89,6.926 14.055,7.243 L14.141,7.416 C14.38,7.882 14.196,8.442 13.741,8.697 C13.177,9.01 12.636,9.367 12.123,9.762 C11.708,10.08 11.116,10.025 10.787,9.617 L10.062,8.736 C9.819,8.438 9.784,8.019 9.96,7.678 C10.419,6.8 10.485,5.97 10.046,5.535 L9.894,5.413 L9.8,5.288 C9.275,4.759 7.813,5.366 6.536,6.64 C5.263,7.913 4.659,9.375 5.188,9.903 L5.314,9.994 L5.435,10.15 C5.87,10.585 6.697,10.519 7.574,10.064 C7.919,9.884 8.334,9.919 8.636,10.166 L9.518,10.887 C9.913,11.212 9.992,11.796 9.678,12.203 C9.22,12.795 8.812,13.43 8.456,14.096 C8.217,14.55 7.653,14.723 7.194,14.499 L7.022,14.413 C6.701,14.26 6.497,13.939 6.481,13.586 C6.465,13.183 6.328,12.877 6.074,12.775 L5.976,12.748 L5.905,12.709 C5.541,12.56 4.953,13.155 4.6,14.041 C4.244,14.922 4.252,15.757 4.616,15.906 L4.699,15.921 L4.789,15.972 C5.039,16.074 5.353,15.949 5.643,15.671 C5.897,15.424 6.266,15.338 6.606,15.447 L6.787,15.506 C7.284,15.667 7.551,16.192 7.41,16.697 C7.237,17.312 7.104,17.943 7.022,18.593 C6.955,19.111 6.497,19.491 5.972,19.436 L4.839,19.326 C4.456,19.287 4.134,19.017 4.021,18.648 C3.723,17.704 3.182,17.073 2.567,17.073 L2.371,17.097 L2.218,17.073 C1.47,17.073 0.863,18.535 0.863,20.333 C0.863,22.135 1.47,23.597 2.218,23.597 L2.371,23.573 L2.567,23.597 C3.182,23.597 3.723,22.966 4.021,22.022 C4.134,21.653 4.456,21.383 4.839,21.344 L5.964,21.234 C6.477,21.183 6.951,21.544 7.018,22.057 C7.116,22.813 7.276,23.546 7.496,24.255 C7.645,24.741 7.37,25.262 6.889,25.426 L6.704,25.493 C6.367,25.607 5.999,25.528 5.737,25.285 C5.443,25.015 5.129,24.894 4.879,25.003 L4.789,25.054 L4.71,25.074 C4.346,25.227 4.354,26.065 4.726,26.939 C5.098,27.812 5.694,28.4 6.058,28.243 L6.128,28.2 L6.227,28.173 C6.477,28.067 6.61,27.758 6.618,27.354 C6.626,27.001 6.822,26.676 7.139,26.516 L7.316,26.425 C7.778,26.19 8.338,26.371 8.593,26.829 C8.91,27.393 9.267,27.934 9.659,28.443 C9.98,28.859 9.921,29.45 9.518,29.783 L8.636,30.504 C8.334,30.751 7.919,30.786 7.574,30.606 C6.697,30.151 5.87,30.085 5.435,30.52 L5.314,30.676 L5.188,30.767 C4.659,31.296 5.263,32.757 6.536,34.03 C7.813,35.304 9.275,35.911 9.8,35.382 L9.894,35.257 L10.046,35.135 C10.485,34.7 10.419,33.87 9.96,32.992 C9.784,32.651 9.819,32.232 10.062,31.934 L10.787,31.053 C11.112,30.657 11.696,30.579 12.099,30.892 C12.695,31.35 13.33,31.758 13.996,32.11 C14.446,32.353 14.619,32.914 14.395,33.376 L14.313,33.548 C14.156,33.866 13.839,34.073 13.482,34.085 C13.083,34.101 12.777,34.242 12.675,34.493 L12.648,34.594 L12.605,34.665 C12.46,35.029 13.055,35.613 13.937,35.97 C14.818,36.326 15.657,36.318 15.802,35.95 L15.822,35.872 L15.872,35.782 C15.974,35.527 15.849,35.217 15.571,34.927 C15.324,34.673 15.238,34.301 15.348,33.964 L15.406,33.779 C15.567,33.282 16.092,33.016 16.593,33.157 C17.208,33.333 17.843,33.462 18.49,33.548 C19.011,33.615 19.387,34.073 19.336,34.594 L19.222,35.727 C19.183,36.115 18.917,36.432 18.548,36.549 C17.604,36.847 16.969,37.388 16.969,38.003 L16.993,38.199 L16.969,38.352 C16.969,39.1 18.431,39.703 20.233,39.703 C22.035,39.703 23.497,39.1 23.497,38.352 L23.473,38.199 L23.497,38.003 C23.497,37.388 22.866,36.847 21.922,36.549 C21.55,36.432 21.283,36.115 21.244,35.727 L21.13,34.606 C21.079,34.089 21.444,33.615 21.957,33.548 C22.709,33.454 23.442,33.294 24.151,33.074 C24.641,32.925 25.158,33.2 25.326,33.682 L25.389,33.866 C25.507,34.199 25.424,34.571 25.185,34.833 C24.911,35.127 24.794,35.441 24.899,35.691 L24.95,35.782 L24.974,35.86 C25.127,36.224 25.961,36.216 26.839,35.844 C27.713,35.468 28.296,34.873 28.144,34.512 L28.1,34.442 L28.069,34.34 C27.963,34.093 27.654,33.96 27.254,33.952 C26.898,33.944 26.576,33.744 26.416,33.427 L26.326,33.254 C26.09,32.788 26.271,32.228 26.725,31.973 C27.293,31.66 27.83,31.303 28.343,30.908 C28.759,30.59 29.35,30.645 29.683,31.053 L30.404,31.934 C30.647,32.232 30.686,32.651 30.506,32.992 C30.048,33.87 29.985,34.7 30.42,35.135 L30.573,35.257 L30.667,35.382 C31.196,35.911 32.657,35.304 33.93,34.03 C35.204,32.757 35.807,31.296 35.282,30.767 L35.157,30.676 L35.035,30.52 C34.596,30.085 33.77,30.151 32.892,30.606 C32.547,30.786 32.132,30.751 31.834,30.504 L30.949,29.783 C30.553,29.458 30.475,28.874 30.788,28.467 C31.247,27.875 31.658,27.24 32.011,26.574 C32.249,26.12 32.814,25.947 33.276,26.171 L33.448,26.257 C33.766,26.41 33.969,26.731 33.985,27.084 C34.001,27.487 34.138,27.793 34.393,27.895 L34.491,27.922 L34.561,27.961 C34.929,28.11 35.513,27.515 35.87,26.629 C36.222,25.748 36.214,24.913 35.85,24.764 L35.768,24.749 L35.678,24.698 C35.427,24.596 35.114,24.721 34.824,24.999 C34.569,25.246 34.201,25.332 33.864,25.223 L33.68,25.164 C33.182,25.003 32.916,24.478 33.057,23.973 C33.229,23.358 33.362,22.727 33.444,22.077 C33.515,21.559 33.973,21.179 34.495,21.234 L35.627,21.344 C36.011,21.383 36.332,21.653 36.45,22.022 C36.743,22.966 37.284,23.597 37.903,23.597 L38.095,23.573 L38.252,23.597 C38.996,23.597 39.604,22.135 39.604,20.333 C39.604,18.535 38.996,17.073 38.252,17.073 L38.252,17.073 Z" id="Fill-12" fill="#E30710" fill-rule="nonzero"></path>
            </g>
        </g>
    </g>
</svg>